PathFileType	4	(X/Y/Z)	s02c0402.trc
DataRate	CameraRate	NumFrames	NumMarkers	Units	OrigDataRate	OrigDataStartFrame	OrigNumFrames
200	200	6	50	mm	200	1500	2000
Frame#	Time	racr			lacr			c7			jug			rlel			rdr			llel			ldr			s2			lic			ric			lasi			rasi			rpsi			lpsi			rgt			lgt			rth1			rth2			rth3			rth4			rlfc			rmfc			rsh1			rsh2			rsh3			rsh4			rlmal			rmmal			rtoe			rmt5			rmt1			lth1			lth2			lth4			lth3			llfc			lmfc			lsh1			lsh2			lsh3			lsh4			llmal			lmmal			lcal			ltoe			lmt5			SBIKE			LBIKE			RBIKE			
		X1	Y1	Z1	X2	Y2	Z2	X3	Y3	Z3	X4	Y4	Z4	X5	Y5	Z5	X6	Y6	Z6	X7	Y7	Z7	X8	Y8	Z8	X9	Y9	Z9	X10	Y10	Z10	X11	Y11	Z11	X12	Y12	Z12	X13	Y13	Z13	X14	Y14	Z14	X15	Y15	Z15	X16	Y16	Z16	X17	Y17	Z17	X18	Y18	Z18	X19	Y19	Z19	X20	Y20	Z20	X21	Y21	Z21	X22	Y22	Z22	X23	Y23	Z23	X24	Y24	Z24	X25	Y25	Z25	X26	Y26	Z26	X27	Y27	Z27	X28	Y28	Z28	X29	Y29	Z29	X30	Y30	Z30	X31	Y31	Z31	X32	Y32	Z32	X33	Y33	Z33	X34	Y34	Z34	X35	Y35	Z35	X36	Y36	Z36	X37	Y37	Z37	X38	Y38	Z38	X39	Y39	Z39	X40	Y40	Z40	X41	Y41	Z41	X42	Y42	Z42	X43	Y43	Z43	X44	Y44	Z44	X45	Y45	Z45	X46	Y46	Z46	X47	Y47	Z47	X48	Y48	Z48	X49	Y49	Z49	X50	Y50	Z50	
1500	7.5000	677.472295	1160.643621	-115.893853	704.905869	1159.464305	-492.073264	718.008301	1231.811887	-311.266746	631.033336	1130.001043	-297.956226	528.752661	953.930949	-37.460886	673.524031	865.390732	-127.488071	564.492978	985.046646	-663.402254	680.021246	869.092931	-531.459255	148.154644	1140.632646	-336.294953	302.410138	1126.095700	-467.758985	280.215928	1132.249322	-172.751844	340.642428	1092.232585	-435.281424	334.954110	1098.840891	-193.683282	184.035428	1169.341941	-283.869195	195.300105	1176.367545	-369.917846	243.613733	1045.203698	-141.720148	256.675789	1052.596640	-501.421402	310.294523	965.450956	-128.273244	366.735380	897.404397	-130.666191	385.220147	815.908880	-110.413375	395.866510	908.911954	-153.296244	418.050048	680.604003	-145.257774	410.852399	663.140572	-248.981793	397.694195	573.237643	-123.719543	400.805949	485.406852	-140.223012	362.510905	408.132680	-138.615598	416.112859	485.165553	-176.852398	326.273946	296.467960	-146.560851	336.109530	315.248714	-225.472938	515.841192	173.876088	-192.855338	407.701495	193.962806	-131.806620	437.626543	204.219061	-237.247737	374.940369	980.278091	-507.905982	453.147088	943.212673	-505.875017	472.989086	965.250945	-482.926748	503.140393	868.667115	-510.355273	566.028406	790.492374	-489.649454	555.712486	760.582695	-380.726515	493.539257	717.975418	-506.659327	431.041415	661.562499	-490.562169	343.499470	637.902784	-495.873550	441.837126	646.596331	-453.413076	243.292017	603.087330	-485.402193	254.630382	586.366233	-408.109740	170.823610	629.855366	-439.327925	286.191515	368.387784	-445.426811	217.302952	452.045569	-503.999975	-164.616791	857.100688	-316.817793	32.630974	82.718501	-515.273901	32.903511	82.247104	-115.076009	
1501	7.5050	679.087521	1161.649442	-117.905323	704.588954	1158.602938	-493.871986	718.151941	1231.888127	-314.313881	631.805213	1129.730977	-299.816675	529.837977	955.753354	-37.185128	673.587858	865.628573	-126.858847	564.772156	983.942394	-665.265044	679.803716	868.994704	-531.948372	148.762339	1139.754881	-334.571764	301.617093	1125.959650	-467.234873	281.515808	1130.293807	-171.970033	340.383424	1092.069341	-434.936305	336.049862	1096.657199	-193.269859	184.619027	1168.003330	-282.210606	195.180505	1175.562085	-368.220180	243.887249	1042.264585	-141.221792	256.474601	1052.114452	-500.738583	308.147514	961.787901	-127.395212	362.935573	892.318859	-129.825912	379.344918	810.339596	-109.943197	392.583391	903.255782	-152.404821	408.937936	675.189300	-144.592642	402.422894	657.528151	-248.388186	389.290230	567.905003	-123.308929	392.505852	480.086636	-139.443231	354.449192	402.622815	-137.993244	408.030935	479.305804	-176.731697	318.980173	290.866170	-146.064695	328.910249	309.653704	-224.843199	507.391913	165.840102	-192.858042	399.491796	187.234684	-131.702521	429.221646	196.985437	-237.572353	376.173007	982.413518	-507.253503	455.223588	947.416031	-504.584219	474.466214	969.750717	-481.168962	507.118019	874.054489	-508.578546	572.283707	798.087469	-486.783544	562.714750	767.965283	-378.048533	500.105088	724.963370	-504.488368	437.245368	668.607816	-488.384640	349.794905	645.247336	-494.489096	447.898205	653.627205	-451.377165	249.338017	610.359683	-484.389522	260.358122	594.239251	-406.760361	175.850977	636.151379	-439.024832	295.503169	375.991976	-444.198640	225.807048	459.339546	-503.828829	-164.483620	856.930686	-317.184928	32.626963	82.726843	-515.267767	32.901631	82.241616	-115.088682	
1502	7.5100	680.753564	1162.669778	-119.933365	704.247299	1157.716184	-496.019916	718.242105	1231.723319	-317.264844	632.482816	1129.291795	-301.455117	530.860462	957.642909	-36.953486	673.955472	865.794417	-126.431720	565.013384	982.722598	-667.097939	679.581797	869.019910	-532.526338	149.489365	1138.872438	-332.944738	300.801524	1125.877264	-466.731682	282.800406	1128.472920	-171.205494	340.084326	1091.957987	-434.665802	337.300800	1094.483046	-193.036659	185.684212	1166.791193	-280.262073	195.343977	1174.525266	-366.298905	243.986903	1039.595647	-140.506348	256.423197	1052.009460	-500.177516	305.992602	958.583920	-126.483287	359.057765	887.904104	-129.007695	373.663142	805.334330	-109.474034	388.938405	898.394880	-151.150682	400.383889	670.278610	-144.126990	394.124072	652.516408	-247.737475	380.725450	563.152247	-122.656348	384.136716	475.273820	-138.726283	346.313821	397.719499	-137.285829	399.814299	474.731830	-175.716880	311.355471	285.797404	-145.510995	321.535264	304.640356	-224.171950	498.517928	158.436724	-192.680897	390.881356	181.014199	-131.511877	420.324068	190.188379	-237.961857	377.326619	984.611513	-506.402469	457.268539	951.620573	-503.183947	475.709924	974.495232	-479.571644	510.959137	879.878771	-507.149281	577.955867	805.198679	-484.540674	566.517116	774.483831	-376.559459	506.562286	732.020676	-502.330389	443.792358	675.732764	-486.597147	356.240017	652.251490	-493.021612	454.062930	660.234866	-449.044239	255.689061	617.590715	-483.825303	266.475546	601.144289	-405.831875	181.263505	641.616864	-438.458465	304.519260	383.444364	-443.207217	234.663469	466.146918	-503.638897	-164.690285	856.981009	-316.763129	32.638253	82.743409	-515.270260	32.914786	82.230315	-115.099422	
1503	7.5150	682.542430	1163.712707	-122.081938	703.866955	1156.595038	-498.124293	718.360294	1231.488083	-320.078061	633.219203	1128.779609	-302.942366	532.173621	959.481118	-36.678176	674.425897	865.890953	-126.001136	565.213771	981.337760	-668.923709	679.275650	868.748189	-533.027001	150.280014	1137.825376	-331.386973	299.976222	1125.839037	-466.262789	284.080378	1126.751956	-170.508326	339.818631	1091.914349	-434.475585	338.765951	1092.476917	-192.735756	186.071790	1165.845639	-278.498276	194.489409	1173.945692	-364.685488	243.899414	1037.447141	-139.709155	256.309782	1051.512894	-499.582594	303.728866	955.788825	-125.775147	355.123127	883.960594	-128.258704	367.261451	801.147273	-108.841222	384.581765	894.442280	-148.485792	391.965209	665.813395	-143.717220	385.934401	648.094601	-247.113325	372.111250	558.892636	-122.066981	375.799653	471.110253	-137.980516	338.116438	393.306353	-136.548359	391.635483	470.679766	-174.698536	303.493079	281.333496	-144.987838	313.896542	300.209835	-223.485192	489.119330	151.839461	-191.970555	381.949776	175.336407	-131.311960	411.439205	184.376517	-237.931804	378.444007	986.858976	-505.357890	459.308660	955.561328	-501.258283	475.610647	980.354059	-479.601900	514.625339	885.455479	-505.182272	583.899589	812.017070	-481.443120	574.540532	782.213736	-372.152636	512.946871	739.039650	-499.853466	449.954961	682.473438	-484.148135	362.826026	658.871272	-491.558316	460.403793	667.429851	-447.466015	262.145362	623.870839	-483.159841	272.824550	607.456957	-404.982440	186.511489	646.572938	-438.190082	316.458721	391.493948	-444.625735	243.820035	472.379779	-503.447471	-164.632755	856.863231	-317.193974	32.641908	82.751474	-515.270235	32.925316	82.185898	-115.117250	
1504	7.5200	684.244564	1164.627698	-124.474620	703.367871	1155.474945	-500.401607	718.515092	1231.104006	-323.047925	633.783076	1128.305293	-304.623607	533.610817	961.307454	-36.353685	674.880190	865.941192	-125.551861	564.896918	979.596405	-670.933093	679.152826	868.710946	-533.423700	151.088748	1136.801751	-329.859711	299.153972	1125.835583	-465.841660	285.325633	1125.301907	-169.897118	339.520863	1092.031062	-434.245747	339.529439	1090.449461	-192.369744	186.568954	1164.751812	-277.033274	194.272134	1173.378652	-363.107400	243.720987	1035.730362	-139.129229	256.336718	1051.482792	-499.059576	301.484378	953.355926	-125.118590	351.239221	880.392303	-127.140406	361.484968	797.300377	-108.161311	381.077996	890.222211	-147.327443	383.783911	661.883787	-143.228378	377.949652	644.188679	-246.517619	363.652889	555.180393	-121.378259	367.443037	467.309688	-137.185772	329.798907	389.725035	-135.851468	383.397496	466.798453	-174.086137	295.489998	277.561965	-144.416012	306.117636	296.399940	-222.818749	479.704597	145.275163	-192.331287	372.792931	170.308500	-131.159701	402.204352	179.046081	-237.913694	379.553612	989.329013	-504.080239	461.086996	959.899913	-499.628806	476.905164	985.208006	-477.982294	517.933154	891.161080	-503.262434	588.585975	819.828046	-479.497007	581.876154	790.570359	-368.307127	519.282279	745.945534	-497.618680	456.468379	689.024897	-482.186228	369.478342	665.064170	-490.163940	466.767214	673.932292	-445.527762	268.668110	629.211159	-482.135168	279.325404	613.052466	-404.056491	191.976725	650.673247	-437.935728	327.494671	398.809555	-445.340936	253.159909	477.868065	-503.188443	-164.576710	857.010218	-316.781779	32.627098	82.778981	-515.256528	32.943937	82.161578	-115.155952	
1505	7.5250	685.943516	1165.553033	-126.840979	702.838130	1154.117564	-502.631358	719.031399	1231.193227	-326.029073	634.483248	1128.445874	-306.635799	535.011399	963.033498	-36.000286	675.364925	865.902629	-125.246344	565.076149	977.828770	-672.787218	678.451831	868.678044	-534.914022	151.743037	1136.017279	-328.315040	298.347503	1125.857394	-465.481702	286.465316	1124.055745	-169.343246	339.199326	1092.290662	-433.992824	339.732459	1088.034442	-191.895932	186.913196	1163.947303	-275.582073	193.994910	1172.923204	-361.587688	243.421714	1034.333106	-138.784536	256.411590	1051.192377	-498.559039	299.324097	951.257608	-124.790420	347.587454	877.389264	-126.538318	355.693428	793.775628	-107.914135	378.145205	886.470017	-147.334612	376.002142	658.498162	-142.734930	370.361070	640.784500	-245.818769	355.330360	552.114530	-120.565641	359.138837	464.180494	-136.339941	321.349449	386.629360	-135.144811	375.008620	463.855650	-172.713142	287.356313	274.307212	-143.962713	298.214375	293.375694	-222.147885	469.917443	139.742574	-191.956492	363.443680	165.924487	-130.984289	392.766391	174.379901	-237.905598	380.680648	991.898928	-502.799549	462.820568	964.408441	-497.639456	478.393934	989.834239	-476.247724	521.795249	896.755123	-500.421159	592.506327	827.490466	-478.690558	583.892129	797.146111	-367.356150	525.457815	752.702167	-495.371251	463.045689	695.498736	-480.541494	376.244775	670.685311	-488.767063	473.723626	680.037547	-443.722507	275.297928	633.575048	-481.063726	285.736370	617.701457	-403.121035	197.697553	654.042070	-437.640802	338.218820	404.326585	-444.557863	262.615838	482.767873	-503.029070	-164.660290	856.730574	-317.569856	32.634585	82.768072	-515.265969	32.956056	82.132755	-115.188126	
